<?xml version="1.0" standalone="no"?>
<!DOCTYPE svg PUBLIC "-//W3C//DTD SVG 20010904//EN"
 "http://www.w3.org/TR/2001/REC-SVG-20010904/DTD/svg10.dtd">
<svg version="1.0" xmlns="http://www.w3.org/2000/svg"
 width="2133.000000pt" height="2133.000000pt" viewBox="0 0 2133.000000 2133.000000"
 preserveAspectRatio="xMidYMid meet">
<metadata>
Created by potrace 1.11, written by Peter Selinger 2001-2013
</metadata>
<g transform="translate(0.000000,2133.000000) scale(0.100000,-0.100000)"
fill="#000000" stroke="none">
<path d="M17868 19805 l-3 -1525 -56 53 c-84 79 -179 166 -254 232 -38 33 -73
65 -79 70 -12 11 -129 111 -161 137 -204 168 -398 319 -550 428 -49 36 -92 67
-95 70 -13 13 -301 208 -415 280 -136 87 -336 210 -341 210 -2 0 -27 15 -56
33 -29 19 -78 47 -108 64 -30 16 -96 53 -146 80 -173 97 -457 238 -724 361
-181 84 -507 216 -740 300 -148 54 -492 169 -530 177 -8 2 -71 20 -140 40
-121 35 -479 129 -530 139 -14 2 -54 11 -90 20 -36 8 -76 17 -90 20 -14 2 -70
13 -125 25 -117 23 -147 29 -195 37 -19 3 -42 7 -50 9 -8 2 -28 6 -45 9 -16 2
-73 11 -125 20 -52 8 -115 18 -140 21 -25 3 -56 8 -70 10 -14 2 -44 7 -67 10
-24 3 -61 7 -83 10 -22 3 -59 8 -82 11 -24 3 -61 7 -83 9 -71 5 -200 17 -216
20 -9 2 -70 6 -135 10 -65 4 -137 9 -159 11 -235 21 -1085 21 -1275 0 -19 -3
-78 -7 -131 -11 -93 -6 -147 -10 -239 -20 -25 -2 -74 -7 -110 -10 -36 -3 -76
-8 -89 -10 -14 -3 -51 -7 -84 -10 -32 -4 -68 -8 -79 -10 -11 -3 -46 -7 -77
-11 -31 -3 -63 -7 -71 -9 -36 -6 -97 -16 -125 -19 -16 -2 -41 -7 -55 -10 -14
-3 -41 -8 -60 -10 -44 -6 -210 -35 -230 -41 -8 -2 -31 -7 -50 -10 -115 -19
-500 -109 -730 -172 -450 -122 -1025 -323 -1395 -488 -33 -15 -76 -34 -95 -42
-448 -195 -1029 -510 -1475 -801 -251 -164 -729 -506 -785 -562 -3 -3 -50 -41
-105 -85 -55 -44 -111 -90 -125 -101 -14 -12 -47 -41 -75 -64 -343 -292 -772
-710 -1037 -1011 -115 -131 -310 -361 -351 -414 -4 -5 -19 -23 -33 -40 -133
-157 -529 -713 -669 -940 -27 -44 -52 -82 -55 -85 -3 -3 -13 -18 -23 -35 -175
-299 -255 -438 -301 -525 -55 -102 -277 -549 -309 -620 -8 -19 -28 -64 -44
-100 -17 -36 -60 -139 -98 -230 -37 -91 -73 -178 -80 -195 -79 -186 -278 -778
-330 -980 -7 -27 -21 -77 -30 -110 -17 -61 -100 -390 -109 -435 -3 -14 -21
-104 -41 -200 -47 -223 -90 -469 -110 -625 -2 -16 -6 -46 -9 -65 -8 -49 -22
-165 -31 -250 -3 -30 -8 -71 -10 -90 -6 -50 -22 -234 -30 -345 -16 -232 -20
-355 -19 -755 0 -388 5 -579 18 -735 2 -22 7 -87 11 -145 4 -58 8 -107 10
-110 2 -3 6 -48 10 -100 4 -52 8 -97 10 -100 2 -3 6 -35 9 -72 4 -37 9 -77 12
-90 2 -13 6 -45 9 -73 3 -27 7 -61 10 -75 2 -14 7 -43 10 -65 8 -55 11 -75 31
-190 9 -55 18 -109 19 -120 4 -21 62 -316 70 -350 3 -11 9 -42 15 -70 6 -27
37 -155 69 -285 297 -1179 785 -2270 1479 -3305 74 -110 143 -211 154 -225 11
-14 69 -92 130 -175 101 -137 362 -468 398 -505 8 -9 37 -43 65 -75 27 -33 52
-62 55 -65 3 -3 25 -27 49 -55 258 -292 657 -691 921 -921 25 -21 50 -43 56
-49 13 -12 111 -96 173 -149 25 -21 57 -48 71 -59 42 -36 403 -316 456 -353
16 -11 79 -56 139 -100 182 -130 507 -344 525 -344 6 0 10 -4 10 -9 0 -5 12
-15 28 -22 15 -8 92 -53 172 -100 220 -131 402 -230 650 -354 193 -97 285
-140 565 -265 70 -31 337 -137 440 -175 55 -20 107 -39 115 -42 8 -4 17 -7 20
-7 3 -1 10 -4 15 -7 11 -7 470 -159 495 -164 8 -2 69 -19 135 -39 158 -46 470
-128 580 -150 11 -3 54 -12 95 -21 112 -25 150 -32 200 -40 19 -3 51 -10 70
-15 19 -5 51 -11 70 -14 19 -3 73 -12 120 -20 47 -8 105 -18 130 -21 25 -3 52
-8 60 -10 8 -2 38 -6 65 -10 51 -6 57 -7 185 -24 117 -16 182 -24 310 -36 30
-3 75 -7 100 -10 25 -2 86 -7 135 -10 50 -4 110 -8 134 -10 222 -18 821 -24
1116 -11 244 11 352 18 590 41 135 13 151 14 185 19 19 3 58 8 85 11 28 3 61
8 75 10 14 2 45 6 70 9 51 6 292 43 330 51 14 3 77 14 140 25 92 16 474 97
540 114 13 4 90 22 130 31 8 2 58 15 110 30 52 14 102 28 111 30 73 16 370
109 594 185 625 213 1145 447 1797 809 31 17 105 61 164 96 59 36 108 65 109
65 6 0 257 161 379 243 190 127 458 320 649 469 62 49 381 311 387 319 3 3 28
25 55 49 51 43 191 170 299 272 l61 57 3 -1525 2 -1524 1725 0 1725 0 0 10665
0 10665 -1725 0 -1725 0 -2 -1525z m-6818 -2049 c19 -3 73 -7 120 -11 47 -3
96 -8 110 -10 14 -2 54 -7 90 -10 83 -9 116 -13 165 -20 22 -4 51 -8 65 -10
91 -13 240 -39 325 -57 55 -11 111 -22 125 -25 21 -3 64 -13 170 -38 8 -2 69
-18 135 -35 66 -17 131 -33 144 -36 14 -3 28 -7 33 -10 4 -3 16 -7 25 -9 24
-5 273 -84 298 -94 11 -5 85 -32 165 -61 875 -317 1755 -867 2440 -1526 52
-51 109 -105 125 -121 76 -73 269 -281 360 -388 33 -38 62 -72 65 -75 3 -3 21
-25 40 -50 19 -25 43 -54 53 -65 45 -48 261 -344 362 -495 102 -152 239 -374
314 -510 55 -99 230 -448 256 -509 14 -33 36 -84 49 -113 54 -121 148 -365
205 -533 56 -168 145 -464 155 -517 2 -13 9 -41 15 -63 12 -47 48 -199 55
-235 3 -14 14 -74 26 -135 11 -60 23 -126 26 -145 3 -19 9 -57 14 -85 5 -27
12 -75 16 -105 3 -30 7 -57 9 -60 1 -3 6 -41 10 -84 4 -43 8 -86 10 -95 1 -9
6 -56 10 -105 4 -49 8 -97 10 -107 8 -39 18 -346 18 -539 1 -182 -8 -442 -18
-540 -2 -19 -6 -73 -10 -119 -4 -47 -8 -93 -10 -102 -2 -10 -6 -44 -10 -76 -9
-97 -26 -219 -41 -303 -2 -14 -7 -43 -10 -65 -5 -31 -49 -253 -79 -395 -2 -8
-13 -53 -25 -100 -12 -47 -23 -94 -25 -104 -19 -87 -135 -461 -187 -601 -50
-134 -90 -238 -103 -270 -7 -16 -32 -75 -55 -129 -71 -169 -162 -358 -252
-526 -23 -41 -54 -100 -71 -130 -94 -176 -311 -515 -463 -722 -85 -117 -289
-376 -341 -433 -10 -12 -52 -59 -93 -105 -254 -289 -650 -663 -909 -860 -18
-14 -45 -34 -59 -46 -221 -172 -565 -406 -732 -497 -30 -16 -62 -35 -70 -41
-36 -27 -211 -120 -415 -220 -423 -209 -844 -368 -1305 -492 -85 -24 -353 -85
-427 -99 -16 -3 -39 -7 -53 -10 -14 -3 -40 -8 -59 -11 -18 -3 -43 -8 -55 -10
-11 -2 -41 -7 -66 -10 -25 -3 -47 -7 -50 -9 -3 -2 -29 -6 -59 -10 -30 -4 -61
-8 -70 -10 -9 -1 -45 -6 -81 -10 -36 -4 -73 -9 -82 -10 -9 -2 -49 -6 -90 -10
-40 -3 -87 -8 -103 -10 -17 -2 -80 -7 -140 -10 -61 -4 -130 -9 -155 -11 -60
-4 -590 -4 -660 1 -173 10 -259 16 -295 20 -22 2 -67 7 -100 10 -33 3 -76 8
-95 10 -19 2 -57 7 -85 10 -27 3 -59 7 -70 9 -11 2 -45 7 -75 11 -30 4 -64 9
-75 11 -11 2 -60 11 -110 19 -487 84 -1062 253 -1506 444 -210 89 -243 105
-429 198 -224 112 -325 168 -570 316 -36 21 -257 166 -275 180 -5 4 -71 51
-145 104 -74 53 -160 117 -190 141 -30 24 -62 49 -70 55 -59 47 -178 145 -190
157 -9 8 -30 26 -47 40 -119 97 -448 418 -603 589 -247 272 -587 717 -737 966
-7 11 -39 63 -71 115 -217 346 -436 794 -587 1200 -107 285 -239 726 -281 935
-5 27 -20 98 -29 138 -9 41 -35 183 -39 212 -2 17 -9 57 -15 90 -6 33 -13 74
-15 90 -2 17 -9 68 -15 115 -18 135 -21 161 -27 240 -3 41 -7 89 -9 105 -19
147 -26 771 -11 990 16 223 27 358 31 365 2 3 6 37 9 75 4 39 8 81 11 95 6 30
10 56 29 185 9 55 18 111 21 125 11 54 25 126 29 150 2 14 11 55 20 93 9 37
18 79 21 95 6 29 60 238 94 362 67 246 227 685 327 897 18 40 34 76 34 78 0 3
39 85 87 183 586 1189 1494 2196 2618 2902 293 184 694 393 1000 520 83 34
159 66 170 71 72 31 344 126 490 172 314 98 773 203 1060 242 22 3 54 8 70 10
17 3 53 7 80 10 28 3 64 7 80 10 17 2 64 7 105 11 41 3 91 8 110 9 19 2 85 7
145 11 61 3 112 8 114 10 5 5 791 -4 831 -10z"/>
<path d="M10447 15564 c-1 -1 -69 -5 -151 -8 -82 -4 -152 -9 -155 -11 -3 -1
-40 -6 -81 -9 -41 -3 -84 -7 -95 -10 -11 -2 -42 -7 -70 -10 -82 -11 -303 -51
-385 -71 -8 -2 -46 -11 -85 -20 -116 -26 -110 -22 -74 -58 95 -96 231 -298
301 -447 63 -133 125 -328 143 -450 2 -19 9 -62 14 -95 12 -74 12 -317 0 -405
-54 -403 -211 -734 -483 -1017 -248 -259 -574 -439 -923 -509 -121 -23 -186
-29 -363 -28 -168 0 -251 10 -395 45 -443 109 -837 397 -1080 791 -5 9 -25 43
-44 77 l-33 60 -26 -37 c-100 -148 -267 -450 -363 -657 -180 -392 -331 -901
-384 -1295 -7 -52 -11 -79 -19 -135 -8 -46 -13 -101 -23 -240 -15 -196 -8
-744 11 -855 2 -14 7 -52 10 -85 7 -67 13 -114 21 -165 3 -19 8 -51 11 -70 3
-19 7 -42 9 -50 2 -8 7 -31 10 -50 14 -88 76 -347 111 -465 22 -73 74 -237 84
-260 4 -11 36 -92 70 -180 115 -294 373 -777 513 -960 4 -5 48 -66 99 -135
136 -187 283 -355 473 -545 186 -186 200 -199 360 -331 460 -378 986 -668
1557 -858 135 -45 340 -105 416 -121 36 -8 228 -47 247 -50 61 -11 146 -25
190 -31 28 -3 57 -8 66 -9 9 -2 52 -6 95 -10 43 -4 87 -9 97 -11 119 -22 664
-21 882 1 81 8 151 16 175 20 14 2 48 6 75 10 288 34 824 173 1060 274 11 5
83 35 160 67 147 61 492 232 539 267 6 4 67 42 136 84 117 72 351 234 412 285
15 13 53 44 85 70 32 25 69 56 83 68 241 208 372 341 606 612 52 61 217 283
286 385 250 371 460 801 592 1209 42 130 109 368 120 424 2 14 14 68 24 120
11 52 23 115 27 140 4 24 8 47 10 50 2 3 6 32 10 65 4 33 9 74 11 90 2 17 7
53 10 80 3 28 7 60 9 73 25 147 26 706 0 962 -11 121 -34 288 -50 370 -8 41
-17 89 -20 105 -34 201 -115 485 -211 750 -82 224 -225 534 -317 690 -32 55
-64 109 -81 140 -39 70 -272 412 -296 435 -3 3 -30 37 -60 75 -203 263 -552
611 -820 817 -492 380 -1016 654 -1575 824 -82 26 -168 51 -190 56 -22 5 -47
11 -55 13 -8 2 -73 18 -145 34 -121 27 -162 35 -240 46 -16 3 -39 6 -50 9 -11
2 -45 7 -75 11 -30 4 -64 9 -75 11 -11 2 -54 6 -95 10 -41 3 -81 7 -88 10 -24
7 -537 24 -545 18z"/>
</g>
</svg>
